<?xml version="1.0" encoding="utf-8" ?><svg xmlns="http://www.w3.org/2000/svg" xmlns:xlink="http://www.w3.org/1999/xlink" width="1024" height="1024" viewBox="0 0 1024 1024"><path fill="#071233" d="M192.229 174.264C193.476 168.923 194.518 164.062 196.589 158.965C211.184 123.045 252.317 107.523 286.254 127.465C299.204 135.075 312.215 142.995 325.121 150.92L401.761 198.333L444.809 224.698C450.399 228.065 464.743 236.204 469.129 239.603C493.801 254.063 517.895 269.824 542.523 284.409C545.368 286.094 556.161 292.225 558.132 294.094C613.448 326.305 667.928 360.794 723.3 393.283L797.941 437.745C810.013 444.943 827.673 454.155 837.794 462.711C856.097 478.184 864.426 509.066 856.253 531.603C851.755 544.947 844.674 556.806 832.776 564.902C790.284 591.347 746.962 616.902 704.092 642.702L584.128 715.142C569.755 723.73 553.248 734.393 538.914 742.323C519.098 755.476 497.922 767.302 477.566 779.636C475.058 781.156 472.018 783.057 469.418 784.346C456.852 793.1 441.107 801.08 427.885 809.577C427.472 809.838 425.688 810.924 425.445 811.175C410.339 819.565 395.834 829.782 380.474 838.355C366.453 848.137 345.797 859.962 330.738 869.072L303.671 885.346C282.865 897.868 267.761 908.951 241.883 903.299C214 897.209 194.143 874.139 192.776 845.573C193.681 829.125 191.853 806.163 192.078 788.551L192.089 362.22C191.656 356.173 191.979 345.996 192.07 339.769C191.723 328.877 192.026 316.337 192.024 305.244L192.092 238.064C191.528 227.327 192.265 213.121 192.019 202.054C191.882 195.936 191.638 179.438 192.229 174.264Z"/><defs><linearGradient id="gradient_0" gradientUnits="userSpaceOnUse" x1="338.26093" y1="684.66095" x2="61.559597" y2="351.74649"><stop offset="0" stop-color="#D62F38"/><stop offset="1" stop-color="#FC813B"/></linearGradient></defs><path fill="url(#gradient_0)" d="M192.092 238.064L193.618 238.635C197.312 240.679 201.921 243.073 205.413 245.313C205.292 246.784 204.917 247.531 205.973 248.538C208.923 251.351 214.511 254.078 217.473 256.57C226.077 263.807 235.72 270.609 244.33 277.592C254.219 285.612 265.624 297.425 274.779 306.567C290.022 321.787 303.142 339.316 316.108 356.414C319.047 360.29 327.708 374.431 329.615 376.23C372.925 451.344 385.439 527.493 362.915 612.166C361.073 619.092 359.273 624.878 356.277 631.46L356.012 631.984C353.52 636.988 351.581 642.399 349.196 647.381C338.07 670.621 326.319 693.584 308.204 712.265C306.434 714.09 300.194 720.734 299.168 722.568C294.265 725.677 286.95 730.634 282.057 733.301C275.332 738.106 194.702 788.007 192.078 788.551L192.089 362.22C191.656 356.173 191.979 345.996 192.07 339.769C191.723 328.877 192.026 316.337 192.024 305.244L192.092 238.064Z"/><path fill="#FD924B" d="M193.618 238.635C197.312 240.679 201.921 243.073 205.413 245.313C205.292 246.784 204.917 247.531 205.973 248.538C208.923 251.351 214.511 254.078 217.473 256.57C226.077 263.807 235.72 270.609 244.33 277.592C254.219 285.612 265.624 297.425 274.779 306.567C290.022 321.787 303.142 339.316 316.108 356.414C319.047 360.29 327.708 374.431 329.615 376.23C372.925 451.344 385.439 527.493 362.915 612.166C361.073 619.092 359.273 624.878 356.277 631.46L356.012 631.984C353.52 636.988 351.581 642.399 349.196 647.381C338.07 670.621 326.319 693.584 308.204 712.265C306.434 714.09 300.194 720.734 299.168 722.568C294.265 725.677 286.95 730.634 282.057 733.301C281.997 732.983 281.936 732.666 281.876 732.349C287.262 725.084 297.937 710.471 302.652 703.871C327.649 668.882 344.177 623.871 350.249 581.501C355.74 543.192 352.943 493.323 341.471 455.944C324.3 401.589 293.572 351.387 256.455 308.38C243.663 293.558 229.794 279.297 216.747 264.668C209.772 256.848 200.693 250.128 194.242 241.672C193.006 240.053 193.296 240.43 193.618 238.635Z"/><defs><linearGradient id="gradient_1" gradientUnits="userSpaceOnUse" x1="99.014252" y1="622.50867" x2="301.71991" y2="487.16266"><stop offset="0" stop-color="#FA823B"/><stop offset="1" stop-color="#FFA653"/></linearGradient></defs><path fill="url(#gradient_1)" d="M192.07 339.769C192.251 338.652 192.369 336.543 192.968 335.889C199.103 340.059 207.661 350.469 212.662 356.186C304.336 460.997 314.951 620.794 234.936 735.377C231.507 740.287 205.948 775.26 201.668 776.697L201.432 776.266L202.083 775.485C216.951 757.494 228.705 735.364 238.67 714.234C264.923 658.571 275.527 594.265 268.329 533.175C261.215 472.796 235.301 410.887 193.421 366.527C192.389 365.434 192.389 363.685 192.089 362.22C191.656 356.173 191.979 345.996 192.07 339.769Z"/><defs><linearGradient id="gradient_2" gradientUnits="userSpaceOnUse" x1="322.1156" y1="723.21265" x2="442.37793" y2="316.79889"><stop offset="0" stop-color="#DF423A"/><stop offset="1" stop-color="#F8803D"/></linearGradient></defs><path fill="url(#gradient_2)" d="M205.413 245.313C214.892 250.768 223.439 256.468 232.688 262.18L293.513 299.975C299.439 303.658 305.462 307.162 311.471 310.705C347.211 331.783 382.363 354.178 418.023 375.357L565.146 463.9L620.65 497.922C627.293 502.067 638.13 508.107 644.153 512.474C630.733 520.072 618.177 528.394 605.076 536.483L550.814 569.443L388.066 667.927C369.969 678.931 351.88 690.331 333.781 701.31C324.258 707.087 308.638 717.974 299.168 722.568C300.194 720.734 306.434 714.09 308.204 712.265C326.319 693.584 338.07 670.621 349.196 647.381C351.581 642.399 353.52 636.988 356.012 631.984L356.277 631.46C359.273 624.878 361.073 619.092 362.915 612.166C385.439 527.493 372.925 451.344 329.615 376.23C327.708 374.431 319.047 360.29 316.108 356.414C303.142 339.316 290.022 321.787 274.779 306.567C265.624 297.425 254.219 285.612 244.33 277.592C235.72 270.609 226.077 263.807 217.473 256.57C214.511 254.078 208.923 251.351 205.973 248.538C204.917 247.531 205.292 246.784 205.413 245.313Z"/><path fill="#071233" d="M329.615 376.23C332.112 376.932 341.18 382.752 344.209 384.574L385.486 409.895L479.7 467.062L531.533 498.303C537.354 501.808 550.062 508.845 555.021 512.366C538.994 521.446 521.254 532.643 505.278 542.238L420.095 593.448C412.749 597.924 360.742 630.575 356.277 631.46C359.273 624.878 361.073 619.092 362.915 612.166C385.439 527.493 372.925 451.344 329.615 376.23Z"/><defs><linearGradient id="gradient_3" gradientUnits="userSpaceOnUse" x1="646.35956" y1="757.51929" x2="722.8313" y2="324.52261"><stop offset="0" stop-color="#E0423A"/><stop offset="1" stop-color="#F3763E"/></linearGradient></defs><path fill="url(#gradient_3)" d="M588.673 418.603C588.222 413.337 586.752 406.079 585.933 400.685C582.365 377.181 575.311 353.531 568.772 330.677C565.743 320.09 561.006 308.628 557.752 297.989C557.108 295.883 557.277 295.738 558.132 294.094C613.448 326.305 667.928 360.794 723.3 393.283L797.941 437.745C810.013 444.943 827.673 454.155 837.794 462.711C856.097 478.184 864.426 509.066 856.253 531.603C851.755 544.947 844.674 556.806 832.776 564.902C790.284 591.347 746.962 616.902 704.092 642.702L584.128 715.142C569.755 723.73 553.248 734.393 538.914 742.323C543.031 733.982 548.683 725.199 552.799 716.759C567.497 686.623 580.06 655.52 587.031 622.616C587.917 618.433 590.737 608.603 589.466 604.615C600.191 597.423 613.294 590.58 624.392 583.733C654.128 565.387 684.885 548.992 714.51 530.465C724.704 524.089 735.696 518.184 745.665 511.518C733.23 504.793 721.486 497.232 709.356 489.968C682.905 474.129 656.195 458.636 629.643 442.965C616.001 434.913 602.001 427.127 588.673 418.603Z"/><defs><linearGradient id="gradient_4" gradientUnits="userSpaceOnUse" x1="341.79834" y1="346.61148" x2="371.06943" y2="134.85297"><stop offset="0" stop-color="#F47B35"/><stop offset="1" stop-color="#FBA447"/></linearGradient></defs><path fill="url(#gradient_4)" d="M192.229 174.264C193.476 168.923 194.518 164.062 196.589 158.965C211.184 123.045 252.317 107.523 286.254 127.465C299.204 135.075 312.215 142.995 325.121 150.92L401.761 198.333L444.809 224.698C450.399 228.065 464.743 236.204 469.129 239.603C493.801 254.063 517.895 269.824 542.523 284.409C545.368 286.094 556.161 292.225 558.132 294.094C557.277 295.738 557.108 295.883 557.752 297.989C561.006 308.628 565.743 320.09 568.772 330.677C575.311 353.531 582.365 377.181 585.933 400.685C586.752 406.079 588.222 413.337 588.673 418.603C563.194 403.379 537.384 388.01 512.441 371.922C503.926 367.501 495.099 361.715 486.853 356.696C454.451 336.976 422.186 316.963 389.822 297.176L243.073 207.317C226.486 197.107 208.981 187.193 192.645 176.702L192.229 174.264Z"/><path fill="#DB4038" d="M469.129 239.603C493.801 254.063 517.895 269.824 542.523 284.409C545.368 286.094 556.161 292.225 558.132 294.094C557.277 295.738 557.108 295.883 557.752 297.989C561.006 308.628 565.743 320.09 568.772 330.677C575.311 353.531 582.365 377.181 585.933 400.685C586.752 406.079 588.222 413.337 588.673 418.603C563.194 403.379 537.384 388.01 512.441 371.922C514.328 365.294 487.642 293.506 484.619 282.308C482.869 275.824 476.896 260.113 474.262 253.088C472.775 249.122 469.864 244.306 469.129 239.603Z"/><defs><linearGradient id="gradient_5" gradientUnits="userSpaceOnUse" x1="240.27017" y1="907.36176" x2="421.55374" y2="652.83636"><stop offset="0" stop-color="#DA2F37"/><stop offset="1" stop-color="#F1693B"/></linearGradient></defs><path fill="url(#gradient_5)" d="M589.466 604.615C590.737 608.603 587.917 618.433 587.031 622.616C580.06 655.52 567.497 686.623 552.799 716.759C548.683 725.199 543.031 733.982 538.914 742.323C519.098 755.476 497.922 767.302 477.566 779.636C475.058 781.156 472.018 783.057 469.418 784.346C456.852 793.1 441.107 801.08 427.885 809.577C427.472 809.838 425.688 810.924 425.445 811.175C410.339 819.565 395.834 829.782 380.474 838.355C366.453 848.137 345.797 859.962 330.738 869.072L303.671 885.346C282.865 897.868 267.761 908.951 241.883 903.299C214 897.209 194.143 874.139 192.776 845.573C196.512 842.906 201.944 839.862 205.948 837.389L239.074 817.319L334.289 759.768L432.16 700.031C442.307 693.937 453.762 686.205 463.92 680.701C465.636 679.28 481.377 670.304 484.404 668.528C497.575 660.799 512.016 650.515 525.393 643.574C546.411 630.401 568.222 617.664 589.466 604.615Z"/><path fill="#DB4038" d="M589.466 604.615C590.737 608.603 587.917 618.433 587.031 622.616C580.06 655.52 567.497 686.623 552.799 716.759C548.683 725.199 543.031 733.982 538.914 742.323C519.098 755.476 497.922 767.302 477.566 779.636C475.058 781.156 472.018 783.057 469.418 784.346C456.852 793.1 441.107 801.08 427.885 809.577C427.472 809.838 425.688 810.924 425.445 811.175C410.339 819.565 395.834 829.782 380.474 838.355C382.782 832.946 389.898 824.845 393.668 820.151C422.938 783.705 444.673 741.277 459.209 696.95C460.762 692.216 463.019 685.518 463.92 680.701C465.636 679.28 481.377 670.304 484.404 668.528C497.575 660.799 512.016 650.515 525.393 643.574C546.411 630.401 568.222 617.664 589.466 604.615Z"/><path fill="#FD924B" d="M589.466 604.615C590.737 608.603 587.917 618.433 587.031 622.616C580.06 655.52 567.497 686.623 552.799 716.759C548.683 725.199 543.031 733.982 538.914 742.323C519.098 755.476 497.922 767.302 477.566 779.636C475.058 781.156 472.018 783.057 469.418 784.346C469.813 780.089 479.778 766.268 482.497 761.192C500.143 728.251 515.105 692.801 522.48 656.068C523.26 652.18 524.023 648.034 525.189 644.229L525.393 643.574C546.411 630.401 568.222 617.664 589.466 604.615Z"/></svg>