<?xml version="1.0" encoding="utf-8" ?><svg xmlns="http://www.w3.org/2000/svg" xmlns:xlink="http://www.w3.org/1999/xlink" viewBox="0 0 1024 1024"><defs><linearGradient id="gradient_0" gradientUnits="userSpaceOnUse" x1="541.12476" y1="715.75049" x2="286.53644" y2="292.3324"><stop offset="0" stop-color="#FD6F29"/><stop offset="1" stop-color="#F6AF53"/></linearGradient></defs><path fill="url(#gradient_0)" d="M215.543 351.596C218.718 341.42 231.057 326.281 239.697 320.454C261.396 305.82 285.495 292.769 307.839 279.118L452.325 192.367C470.896 181.32 489.407 170.911 507.883 159.64C508.487 200.163 511.451 226.301 492.683 263.983C491.505 265.487 491.437 265.655 490.585 267.389C488.027 270.623 485.976 274.333 483.435 277.519C464.59 301.156 437.213 314.316 411.875 329.612C378.24 349.917 342.292 368.371 313.172 395.138C305.143 402.517 295.45 412.675 289.348 421.625C215.841 529.443 292.45 661.604 414.377 681.568C395.908 718.387 388.024 762.167 405.609 801.115C390.556 793.751 378.189 785.134 363.809 776.894C329.527 757.447 296.084 736.075 262.022 716.335C241.759 704.592 221.921 691.057 214.088 667.688C207.436 647.837 209.478 622.739 209.513 601.686L209.548 522.559L209.676 420.673C209.785 405.514 209.956 390.352 210.097 375.196C210.177 366.518 214.036 359.632 214.894 352.279L215.543 351.596Z"/><defs><linearGradient id="gradient_1" gradientUnits="userSpaceOnUse" x1="747.74066" y1="727.81573" x2="470.39749" y2="328.16595"><stop offset="0" stop-color="#FF4F24"/><stop offset="1" stop-color="#F69B3F"/></linearGradient></defs><path fill="url(#gradient_1)" d="M618.979 222.443C628.004 226.164 644.824 236.373 653.85 241.684L702.68 270.343L750.169 298.448C761.247 304.978 773.645 311.825 783.819 319.507C800.922 332.421 813.332 357.314 813.569 378.756C813.667 387.627 813.495 396.868 813.458 405.836L813.509 463.833L813.499 585.188L813.493 621.439C813.515 635.318 814.485 650.394 810.824 663.491C807.288 676.143 798.8 692.319 788.532 700.687C779.613 707.956 765.326 716.019 755.229 721.904L717.688 744.266C657.902 780.177 598.217 816.313 537.806 851.174C531.146 855.313 524.057 859.072 517.634 863.544C512.656 820.777 512.186 774.554 545.415 742.27C608.445 681.032 710.451 663.135 749.347 577.584C794.58 478.097 731.39 375.477 629.749 350.73C623.626 349.241 617.236 347.738 611.137 346.076C630.021 302.324 635.163 268.931 618.979 222.443Z"/><path fill="#FEFEFE" d="M594.297 382.152C597.367 382.819 599.555 383.389 602.558 384.31C609.604 385.385 616.498 387.887 623.323 389.854C688.351 408.599 735.56 464.658 722.519 535.438L721.71 538.573C714.514 566.338 697.639 588.639 676.024 606.569C674.31 607.991 672.003 609.789 670.446 611.288C666.367 613.881 662.6 617.254 658.596 619.992C616.601 648.705 569.595 670.579 530.032 702.897C527.376 705.067 521.253 710.078 519.373 712.637C513.776 717.173 508.592 723.54 504.273 729.272C477.014 765.446 477.176 813.129 494.22 853.622C489.322 849.665 483.758 845.922 478.698 842.006C433.253 806.83 420.612 748.688 449.257 697.879C449.775 696.281 451.225 693.801 452.158 692.222C476.28 651.408 517.162 624.437 554.314 596.632C558.969 593.149 563.592 589.732 568.362 586.669C557.243 566.232 543.585 560.643 523.937 550.885C503.373 540.672 460.069 524.08 450.271 502.483C450.37 501.194 446.385 493.36 445.53 491.308C440.698 479.707 440.554 468.771 442.858 456.531C444.527 447.665 446.938 444.83 454.252 439.917C455.899 441.937 460.566 447.727 462.335 449.241C474.472 459.633 489.009 468.52 503.293 475.424L503.581 474.892C523.814 484.66 546.545 494.873 562.378 511.013C567.124 515.852 570.711 523.107 573.232 525.813C574.26 527.889 576.372 531.911 577.096 533.9C582.949 547.622 581.484 565.157 577.962 579.311C597.112 564.401 619.084 548.146 632.122 527.727C647.479 503.675 652.199 474.3 645.435 446.621C638.144 416.787 619.431 397.908 594.297 382.152Z"/><path fill="#F97333" d="M594.297 382.152C597.367 382.819 599.555 383.389 602.558 384.31C605.648 387.684 612.83 389.563 616.921 392.044C655.253 415.336 680.565 452.6 682.418 498C684.848 557.541 640.468 596.765 595.812 627.672C592.068 630.264 586.967 634.334 583.074 636.41C581.094 636.096 580.391 637.9 577.748 638.761C571.968 634.472 573.024 601.542 570.968 594.23C570.244 591.656 569.659 590.652 568.423 588.318L568.384 588.33C572.727 580.869 570.122 559.467 566.558 551.801L565.746 552.348L565.582 551.418L566.306 551.405L565.682 550.999C565.929 553.877 567.398 555.847 568.159 558.322C570.127 564.721 571.352 580.614 568.362 586.669C557.243 566.232 543.585 560.643 523.937 550.885C503.373 540.672 460.069 524.08 450.271 502.483C450.37 501.194 446.385 493.36 445.53 491.308C440.698 479.707 440.554 468.771 442.858 456.531C444.527 447.665 446.938 444.83 454.252 439.917C455.899 441.937 460.566 447.727 462.335 449.241C474.472 459.633 489.009 468.52 503.293 475.424L503.581 474.892C523.814 484.66 546.545 494.873 562.378 511.013C567.124 515.852 570.711 523.107 573.232 525.813C574.26 527.889 576.372 531.911 577.096 533.9C582.949 547.622 581.484 565.157 577.962 579.311C597.112 564.401 619.084 548.146 632.122 527.727C647.479 503.675 652.199 474.3 645.435 446.621C638.144 416.787 619.431 397.908 594.297 382.152Z"/><defs><linearGradient id="gradient_2" gradientUnits="userSpaceOnUse" x1="584.73889" y1="683.35034" x2="438.26837" y2="705.99902"><stop offset="0" stop-color="#F88439"/><stop offset="1" stop-color="#FBD69B"/></linearGradient></defs><path fill="url(#gradient_2)" d="M568.362 586.669C571.352 580.614 570.127 564.721 568.159 558.322C567.398 555.847 565.929 553.877 565.682 550.999L566.306 551.405L565.582 551.418L565.746 552.348L566.558 551.801C570.122 559.467 572.727 580.869 568.384 588.33L568.423 588.318C569.659 590.652 570.244 591.656 570.968 594.23C573.024 601.542 571.968 634.472 577.748 638.761C580.391 637.9 581.094 636.096 583.074 636.41C582.928 636.564 582.782 636.717 582.637 636.871C538.34 667.744 485.266 694.413 467.624 749.705C461.873 767.729 458.88 785.29 463.102 804.267C457.28 794.428 449.063 773.862 446.641 762.717C443.536 748.432 443.588 726.413 446.878 712.168C447.444 709.721 450.422 700.623 450.099 698.651L449.257 697.879C449.775 696.281 451.225 693.801 452.158 692.222C476.28 651.408 517.162 624.437 554.314 596.632C558.969 593.149 563.592 589.732 568.362 586.669Z"/><path fill="#FEFEFE" d="M529.948 168.987C561.037 189.203 585.542 220.565 588.543 258.46C589.297 263.446 589.152 269.915 588.954 274.994C586.85 328.975 551.82 370.044 510.169 400.508C506.15 404.205 499.622 408.586 495.052 411.745L468.122 430.175C464.281 432.748 458.138 436.459 454.637 439.135C464.534 450.397 473.936 457.864 486.919 465.541C492.215 468.673 498.561 471.573 503.581 474.892L503.293 475.424C489.009 468.52 474.472 459.633 462.335 449.241C460.566 447.727 455.899 441.937 454.252 439.917C446.938 444.83 444.527 447.665 442.858 456.531C440.554 468.771 440.698 479.707 445.53 491.308C446.385 493.36 450.37 501.194 450.271 502.483C437.97 485.361 439.416 465.693 444.58 446.453C414.119 467.94 383.271 496.841 377.01 535.074C372.898 560.185 378.064 586.304 393.277 606.763C406.468 624.504 410.764 628.814 429.085 639.068L425.008 639.6L425.007 640.608C418.192 640.134 408.715 637.616 401.857 635.75C350.15 621.995 304.432 577.329 299.685 522.928C289.617 407.547 428.734 379.545 497.433 319.241C515.903 303.029 530.795 280.866 537.632 256.906C545.369 229.794 544.089 194.161 529.948 168.987Z"/><path fill="#F69C4C" d="M488.515 356.332C496.172 354.523 514.455 333.486 519.321 333.354C521.858 335.726 523.182 335.036 526.146 336.25C532.369 338.799 537.455 344.547 538.763 351.288C539.466 354.906 537.848 362.087 540.609 364.837C541.442 365.666 543.976 367.422 544.963 367.722C544.362 374.117 510.76 397.14 510.169 400.508C506.15 404.205 499.622 408.586 495.052 411.745L468.122 430.175C464.281 432.748 458.138 436.459 454.637 439.135C464.534 450.397 473.936 457.864 486.919 465.541C492.215 468.673 498.561 471.573 503.581 474.892L503.293 475.424C489.009 468.52 474.472 459.633 462.335 449.241C460.566 447.727 455.899 441.937 454.252 439.917C446.938 444.83 444.527 447.665 442.858 456.531C440.554 468.771 440.698 479.707 445.53 491.308C446.385 493.36 450.37 501.194 450.271 502.483C437.97 485.361 439.416 465.693 444.58 446.453C414.119 467.94 383.271 496.841 377.01 535.074C372.898 560.185 378.064 586.304 393.277 606.763C406.468 624.504 410.764 628.814 429.085 639.068L425.008 639.6C418.792 637.552 413.262 634.891 407.509 631.903C346.149 599.918 322.059 526.589 357.552 465.957C385.621 418.008 432.598 394.514 476.966 364.433C480.734 361.879 484.606 358.533 488.515 356.332Z"/><defs><linearGradient id="gradient_3" gradientUnits="userSpaceOnUse" x1="511.83029" y1="320.40668" x2="592.60852" y2="279.19574"><stop offset="0" stop-color="#F5B465"/><stop offset="1" stop-color="#FFD5A1"/></linearGradient></defs><path fill="url(#gradient_3)" d="M488.515 356.332C493.158 351.688 506.443 341.986 512.543 336.541C540.755 311.358 556.445 285.549 563.006 248.216C564.165 241.621 564.277 235.218 565.324 228.691C566.263 227.88 565.713 228.083 566.984 228.116C567.037 228.163 571.366 236.777 571.754 237.619C572.476 239.188 571.043 241.733 570.727 243.402C570.357 245.356 584.345 277.157 586.655 280.516L587.542 280.652C588.595 275.538 587.618 265.964 588.436 259.301L588.543 258.46C589.297 263.446 589.152 269.915 588.954 274.994C586.85 328.975 551.82 370.044 510.169 400.508C510.76 397.14 544.362 374.117 544.963 367.722C543.976 367.422 541.442 365.666 540.609 364.837C537.848 362.087 539.466 354.906 538.763 351.288C537.455 344.547 532.369 338.799 526.146 336.25C523.182 335.036 521.858 335.726 519.321 333.354C514.455 333.486 496.172 354.523 488.515 356.332Z"/><path fill="#0C1321" fill-opacity="0.011764706" d="M670.446 611.288C671.053 611.272 671.83 611.251 672.777 611.226C674.183 610.252 673.915 609.255 675.144 609.797L675.53 611.806C675.216 612.079 667.413 617.324 667.219 617.414L664.933 618.481C663.637 622.189 661.932 623.033 658.412 625.494C657.524 624.536 657.925 624.925 657.848 623.005L657.148 623.217C656.473 624.827 656.503 625.103 656.251 626.793L655.566 627.465L654.958 627.16L654.714 624.956C653.223 625.855 653.211 627.352 652.914 628.98C651.385 630.612 650.394 631.07 648.496 632.265C648.085 630.49 648.565 631.096 647.248 630.212C646.284 630.377 645.725 630.231 645.206 631.389C642.194 638.112 643.286 636.837 635.989 639.792L634.003 638.87C632.068 640.521 633.018 643.414 631.266 645.323L630.025 644.684C630.032 642.876 629.664 643.359 630.515 642.483L631.407 643.406L631.555 642.175C630.618 641.243 631.18 641.47 629.876 641.474C629.5 642.438 629.373 642.779 629.14 643.784L627.725 644.444L627.417 642.322L627.256 642.226L627.578 643.347L625.918 642.807L625.073 643.69C625.747 646.207 625.973 645.536 625.19 647.537C622.207 650.37 618.165 650.307 614.425 651.655C612.633 652.301 614.186 655.282 612.26 655.763C609.821 656.373 607.649 655.714 605.86 657.553C604.785 658.657 604.534 659.1 603.201 659.423C602.227 658.945 601.488 658.587 600.54 658.061C597.452 660.589 598.906 662.395 596.765 663.707C594.881 664.585 590.013 664.573 589.066 666.512C586.579 671.6 579.514 672.656 574.916 675.533C570.441 678.334 569.364 682.167 564.068 682.52C561.269 682.707 557.422 686.956 555.779 689.104C554.486 690.853 551.45 689.927 550.198 691.149C548.703 692.609 549.365 695.742 546.707 696.99L545.768 696.919L546.391 697.082C545.175 696.687 544.532 696.309 543.459 695.652L542.559 695.624C541.569 697.52 541.471 696.786 541.843 698.235L541.501 698.575C540.394 698.386 539.879 698.034 539.37 698.534C537.476 700.395 536.009 702.993 534.152 704.961C531.782 707.472 526.722 709.594 524.454 711.214C524.649 712.699 524.763 712.641 524.561 714.073C522.441 714.507 521.63 714.813 519.707 715.809C519.35 714.481 519.718 713.633 519.373 712.637C521.253 710.078 527.376 705.067 530.032 702.897C569.595 670.579 616.601 648.705 658.596 619.992C662.6 617.254 666.367 613.881 670.446 611.288Z"/><path fill="#FE9E80" d="M429.085 639.068C431.034 640.093 433.133 641.143 435.004 642.281C431.282 641.809 428.642 641.471 425.007 640.608L425.008 639.6L429.085 639.068Z"/></svg>